<svg xmlns="http://www.w3.org/2000/svg" viewBox="0 0 900 600" role="img" aria-label="JetRuns — трекинг марафонских тренировок">
  <defs>
    <linearGradient id="bg" x1="0" y1="0" x2="1" y2="1">
      <stop offset="0" stop-color="#0c0a18"/><stop offset="0.55" stop-color="#120e26"/><stop offset="1" stop-color="#07060e"/>
    </linearGradient>
    <linearGradient id="stroke" x1="0" y1="0" x2="1" y2="0">
      <stop offset="0" stop-color="#22d3ee"/><stop offset="1" stop-color="#a78bfa"/>
    </linearGradient>
    <radialGradient id="glow" cx="0.32" cy="0.34" r="0.78">
      <stop offset="0" stop-color="#8b5cf6" stop-opacity="0.32"/><stop offset="1" stop-color="#8b5cf6" stop-opacity="0"/>
    </radialGradient>
    <filter id="soft" x="-20%" y="-20%" width="140%" height="140%"><feGaussianBlur stdDeviation="6"/></filter>
  </defs>

  <rect width="900" height="600" fill="url(#bg)"/>
  <rect width="900" height="600" fill="url(#glow)"/>
  <g stroke="#a78bfa" stroke-opacity="0.06" stroke-width="1">
    <path d="M0 150 H900 M0 300 H900 M0 450 H900"/>
    <path d="M180 0 V600 M360 0 V600 M540 0 V600 M720 0 V600"/>
  </g>

  <path d="M40 330 L150 330 L185 270 L225 390 L275 190 L320 330 L470 330 L505 270 L545 400 L595 220 L640 330 L860 330"
        fill="none" stroke="url(#stroke)" stroke-width="5" stroke-linecap="round" stroke-linejoin="round" filter="url(#soft)" opacity="0.6"/>
  <path d="M40 330 L150 330 L185 270 L225 390 L275 190 L320 330 L470 330 L505 270 L545 400 L595 220 L640 330 L860 330"
        fill="none" stroke="url(#stroke)" stroke-width="3.5" stroke-linecap="round" stroke-linejoin="round"/>
  <circle cx="595" cy="220" r="6.5" fill="#22d3ee"/>
  <circle cx="595" cy="220" r="13" fill="none" stroke="#22d3ee" stroke-opacity="0.5" stroke-width="2"/>

  <g transform="translate(706 120)">
    <rect x="20" y="0" width="14" height="22" rx="6" fill="#a78bfa" opacity="0.85"/>
    <rect x="20" y="98" width="14" height="22" rx="6" fill="#a78bfa" opacity="0.85"/>
    <rect x="-6" y="18" width="66" height="84" rx="26" fill="none" stroke="url(#stroke)" stroke-width="4"/>
    <path d="M6 64 L18 64 L23 52 L31 78 L38 56 L42 64 L48 64" fill="none" stroke="#22d3ee" stroke-width="3" stroke-linecap="round" stroke-linejoin="round"/>
  </g>

  <text x="56" y="92" font-family="'Segoe UI',system-ui,sans-serif" font-size="56" font-weight="700" fill="#f4f3fb" letter-spacing="-1">JetRuns</text>
  <text x="58" y="130" font-family="ui-monospace,'IBM Plex Mono',monospace" font-size="18" font-weight="600" fill="#a78bfa" letter-spacing="3">RUN · PULSE · RECOVERY</text>

  <g font-family="ui-monospace,'IBM Plex Mono',monospace" fill="#f4f3fb">
    <g transform="translate(56 466)">
      <rect width="158" height="80" rx="18" fill="rgba(167,139,250,0.08)" stroke="rgba(167,139,250,0.22)"/>
      <text x="20" y="34" font-size="14" fill="#22d3ee">PACE</text>
      <text x="20" y="63" font-size="25" font-weight="700">4:42 /km</text>
    </g>
    <g transform="translate(234 466)">
      <rect width="146" height="80" rx="18" fill="rgba(167,139,250,0.08)" stroke="rgba(167,139,250,0.22)"/>
      <text x="20" y="34" font-size="14" fill="#22d3ee">HR</text>
      <text x="20" y="63" font-size="26" font-weight="700">156 bpm</text>
    </g>
    <g transform="translate(400 466)">
      <rect width="170" height="80" rx="18" fill="rgba(167,139,250,0.08)" stroke="rgba(167,139,250,0.22)"/>
      <text x="20" y="34" font-size="14" fill="#22d3ee">DISTANCE</text>
      <text x="20" y="63" font-size="26" font-weight="700">21.1 km</text>
    </g>
  </g>
</svg>
